<?xml version="1.0" encoding="UTF-8"?>
<svg width="306px" height="86px" viewBox="0 0 306 86" version="1.1" xmlns="http://www.w3.org/2000/svg" xmlns:xlink="http://www.w3.org/1999/xlink">
    <!-- Generator: Sketch 52.5 (67469) - http://www.bohemiancoding.com/sketch -->
    <title>Logo</title>
    <desc>Created with Sketch.</desc>
    <g id="Page-1" stroke="none" stroke-width="1" fill="none" fill-rule="evenodd">
        <g id="Artboard" transform="translate(-192.000000, -201.000000)">
            <g id="Logo" transform="translate(192.000000, 201.000000)">
                <polygon id="Path" fill="#75AACE" points="223.36 18.44 223.36 59.48 213.44 59.48 213.44 18.44"></polygon>
                <path d="M224.72,6.48 C224.72,7.3333376 224.546668,8.1333296 224.2,8.88 C223.853332,9.6266704 223.393336,10.2799972 222.82,10.84 C222.246664,11.4000028 221.573337,11.846665 220.8,12.18 C220.026663,12.513335 219.200004,12.68 218.32,12.68 C217.466662,12.68 216.660004,12.513335 215.9,12.18 C215.139996,11.846665 214.480003,11.4000028 213.92,10.84 C213.359997,10.2799972 212.913335,9.6266704 212.58,8.88 C212.246665,8.1333296 212.08,7.3333376 212.08,6.48 C212.08,5.5999956 212.246665,4.7733372 212.58,4 C212.913335,3.2266628 213.359997,2.5600028 213.92,2 C214.480003,1.4399972 215.139996,0.993335 215.9,0.66 C216.660004,0.326665 217.466662,0.16 218.32,0.16 C219.200004,0.16 220.026663,0.326665 220.8,0.66 C221.573337,0.993335 222.246664,1.4399972 222.82,2 C223.393336,2.5600028 223.853332,3.2266628 224.2,4 C224.546668,4.7733372 224.72,5.5999956 224.72,6.48 Z" id="Path" fill="#FEB33D"></path>
                <path d="M305.64,53.32 C305.64,54.1733376 305.466668,54.9733296 305.12,55.72 C304.773332,56.4666704 304.313336,57.1199972 303.74,57.68 C303.166664,58.2400028 302.493337,58.686665 301.72,59.02 C300.946663,59.353335 300.120004,59.52 299.24,59.52 C298.386662,59.52 297.580004,59.353335 296.82,59.02 C296.059996,58.686665 295.400003,58.2400028 294.84,57.68 C294.279997,57.1199972 293.833335,56.4666704 293.5,55.72 C293.166665,54.9733296 293,54.1733376 293,53.32 C293,52.4399956 293.166665,51.6133372 293.5,50.84 C293.833335,50.0666628 294.279997,49.4000028 294.84,48.84 C295.400003,48.2799972 296.059996,47.833335 296.82,47.5 C297.580004,47.166665 298.386662,47 299.24,47 C300.120004,47 300.946663,47.166665 301.72,47.5 C302.493337,47.833335 303.166664,48.2799972 303.74,48.84 C304.313336,49.4000028 304.773332,50.0666628 305.12,50.84 C305.466668,51.6133372 305.64,52.4399956 305.64,53.32 Z" id="Path" fill="#07175C"></path>
                <path d="M233.32,59.48 L233.32,25.88 L229.76,25.32 C228.986663,25.1599992 228.366669,24.8866686 227.9,24.5 C227.433331,24.1133314 227.2,23.5600036 227.2,22.84 L227.2,18.8 L233.32,18.8 L233.32,15.76 C233.32,13.4133216 233.67333,11.306676 234.38,9.44 C235.08667,7.573324 236.099993,5.9866732 237.42,4.68 C238.740007,3.3733268 240.346657,2.3733368 242.24,1.68 C244.133343,0.9866632 246.266655,0.64 248.64,0.64 C250.533343,0.64 252.293325,0.8933308 253.92,1.4 L253.72,6.36 C253.693333,6.7333352 253.586668,7.0333322 253.4,7.26 C253.213332,7.4866678 252.966668,7.6599994 252.66,7.78 C252.353332,7.9000006 252.000002,7.9799998 251.6,8.02 C251.199998,8.0600002 250.773336,8.08 250.32,8.08 C249.146661,8.08 248.100005,8.2066654 247.18,8.46 C246.259995,8.7133346 245.480003,9.1533302 244.84,9.78 C244.199997,10.4066698 243.713335,11.2333282 243.38,12.26 C243.046665,13.2866718 242.88,14.5599924 242.88,16.08 L242.88,18.8 L253.56,18.8 L253.56,25.84 L243.2,25.84 L243.2,59.48 L233.32,59.48 Z" id="Path" fill="#75AACE"></path>
                <path d="M293.92,19 L271.56,71.32 C271.266665,72.0133368 270.886669,72.5399982 270.42,72.9 C269.953331,73.2600018 269.240005,73.44 268.28,73.44 L260.92,73.44 L268.6,56.96 L252,19 L260.68,19 C261.453337,19 262.059998,19.1866648 262.5,19.56 C262.940002,19.9333352 263.266666,20.3599976 263.48,20.84 L272.2,42.12 C272.493335,42.8400036 272.739999,43.5599964 272.94,44.28 C273.140001,45.0000036 273.333332,45.7333296 273.52,46.48 C273.760001,45.7333296 273.999999,44.993337 274.24,44.26 C274.480001,43.526663 274.746665,42.8000036 275.04,42.08 L283.28,20.84 C283.493334,20.306664 283.846664,19.8666684 284.34,19.52 C284.833336,19.1733316 285.386664,19 286,19 L293.92,19 Z" id="Path" fill="#75AACE"></path>
                <path d="M126.4,6.32 C126.4,7.1733376 126.226668,7.9799962 125.88,8.74 C125.533332,9.5000038 125.073336,10.1599972 124.5,10.72 C123.926664,11.2800028 123.246671,11.726665 122.46,12.06 C121.673329,12.393335 120.840004,12.56 119.96,12.56 C119.106662,12.56 118.30667,12.393335 117.56,12.06 C116.81333,11.726665 116.160003,11.2800028 115.6,10.72 C115.039997,10.1599972 114.593335,9.5000038 114.26,8.74 C113.926665,7.9799962 113.76,7.1733376 113.76,6.32 C113.76,5.4399956 113.926665,4.6200038 114.26,3.86 C114.593335,3.0999962 115.039997,2.4333362 115.6,1.86 C116.160003,1.2866638 116.81333,0.833335 117.56,0.5 C118.30667,0.166665 119.106662,-2.84217094e-14 119.96,-2.84217094e-14 C120.840004,-2.84217094e-14 121.673329,0.166665 122.46,0.5 C123.246671,0.833335 123.926664,1.2866638 124.5,1.86 C125.073336,2.4333362 125.533332,3.0999962 125.88,3.86 C126.226668,4.6200038 126.4,5.4399956 126.4,6.32 Z" id="Path" fill="#3FC0E4"></path>
                <rect id="Rectangle" fill="#07175C" x="0" y="74" width="93" height="6"></rect>
                <rect id="Rectangle" fill="#3FC0E4" x="93" y="80" width="131" height="6"></rect>
                <path d="M17.48,29.16 C19.5066768,29.16 21.2733258,28.9066692 22.78,28.4 C24.2866742,27.8933308 25.5266618,27.1933378 26.5,26.3 C27.4733382,25.4066622 28.1999976,24.3466728 28.68,23.12 C29.1600024,21.8933272 29.4,20.546674 29.4,19.08 C29.4,16.146652 28.433343,13.8933412 26.5,12.32 C24.566657,10.7466588 21.6133532,9.96 17.64,9.96 L10.76,9.96 L10.76,29.16 L17.48,29.16 Z M45.16,59.48 L35.44,59.48 C33.5999908,59.48 32.2666708,58.7600072 31.44,57.32 L19.28,38.8 C18.8266644,38.1066632 18.3266694,37.6133348 17.78,37.32 C17.2333306,37.0266652 16.426672,36.88 15.36,36.88 L10.76,36.88 L10.76,59.48 L0,59.48 L0,1.64 L17.64,1.64 C21.5600196,1.64 24.9266526,2.0466626 27.74,2.86 C30.5533474,3.6733374 32.859991,4.813326 34.66,6.28 C36.460009,7.746674 37.7866624,9.4999898 38.64,11.54 C39.4933376,13.5800102 39.92,15.8266544 39.92,18.28 C39.92,20.2266764 39.6333362,22.066658 39.06,23.8 C38.4866638,25.533342 37.6600054,27.1066596 36.58,28.52 C35.4999946,29.9333404 34.1666746,31.173328 32.58,32.24 C30.9933254,33.306672 29.1866768,34.1466636 27.16,34.76 C27.8533368,35.160002 28.4933304,35.6333306 29.08,36.18 C29.6666696,36.7266694 30.1999976,37.3733296 30.68,38.12 L45.16,59.48 Z M67.92,41.96 C65.0666524,42.093334 62.6666764,42.3399982 60.72,42.7 C58.7733236,43.0600018 57.2133392,43.5199972 56.04,44.08 C54.8666608,44.6400028 54.0266692,45.2933296 53.52,46.04 C53.0133308,46.7866704 52.76,47.5999956 52.76,48.48 C52.76,50.213342 53.2733282,51.4533296 54.3,52.2 C55.3266718,52.9466704 56.6666584,53.32 58.32,53.32 C60.3466768,53.32 62.0999926,52.953337 63.58,52.22 C65.0600074,51.486663 66.5066596,50.3733408 67.92,48.88 L67.92,41.96 Z M45.28,24.16 C50.0000236,19.8399784 55.6799668,17.68 62.32,17.68 C64.720012,17.68 66.8666572,18.0733294 68.76,18.86 C70.6533428,19.6466706 72.2533268,20.739993 73.56,22.14 C74.8666732,23.540007 75.8599966,25.2133236 76.54,27.16 C77.2200034,29.1066764 77.56,31.2399884 77.56,33.56 L77.56,59.48 L73.08,59.48 C72.146662,59.48 71.4266692,59.3400014 70.92,59.06 C70.4133308,58.7799986 70.0133348,58.2133376 69.72,57.36 L68.84,54.4 C67.7999948,55.333338 66.7866716,56.1533298 65.8,56.86 C64.8133284,57.5666702 63.786672,58.1599976 62.72,58.64 C61.653328,59.1200024 60.5133394,59.4866654 59.3,59.74 C58.0866606,59.9933346 56.746674,60.12 55.28,60.12 C53.546658,60.12 51.946674,59.886669 50.48,59.42 C49.013326,58.953331 47.746672,58.253338 46.68,57.32 C45.613328,56.386662 44.7866696,55.2266736 44.2,53.84 C43.6133304,52.4533264 43.32,50.8400092 43.32,49 C43.32,47.9599948 43.4933316,46.9266718 43.84,45.9 C44.1866684,44.8733282 44.7533294,43.893338 45.54,42.96 C46.3266706,42.026662 47.3466604,41.1466708 48.6,40.32 C49.8533396,39.4933292 51.3933242,38.7733364 53.22,38.16 C55.0466758,37.5466636 57.1733212,37.0466686 59.6,36.66 C62.0266788,36.2733314 64.7999844,36.0400004 67.92,35.96 L67.92,33.56 C67.92,30.8133196 67.3333392,28.7800066 66.16,27.46 C64.9866608,26.1399934 63.2933444,25.48 61.08,25.48 C59.479992,25.48 58.1533386,25.6666648 57.1,26.04 C56.0466614,26.4133352 55.120004,26.833331 54.32,27.3 C53.519996,27.766669 52.7933366,28.1866648 52.14,28.56 C51.4866634,28.9333352 50.760004,29.12 49.96,29.12 C49.2666632,29.12 48.6800024,28.9400018 48.2,28.58 C47.7199976,28.2199982 47.3333348,27.8000024 47.04,27.32 L45.28,24.16 Z M124.68,59.48 L114.8,59.48 L114.8,25.84 L95.76,25.84 L95.76,48.08 C95.76,49.3600064 96.0733302,50.3599964 96.7,51.08 C97.3266698,51.8000036 98.1866612,52.16 99.28,52.16 C99.8933364,52.16 100.406665,52.0866674 100.82,51.94 C101.233335,51.7933326 101.593332,51.6400008 101.9,51.48 C102.206668,51.3199992 102.479999,51.1666674 102.72,51.02 C102.960001,50.8733326 103.199999,50.8 103.44,50.8 C103.733335,50.8 103.973332,50.8733326 104.16,51.02 C104.346668,51.1666674 104.546666,51.3866652 104.76,51.68 L107.72,56.48 C106.279993,57.680006 104.626676,58.5866636 102.76,59.2 C100.893324,59.8133364 98.96001,60.12 96.96,60.12 C93.3866488,60.12 90.6466762,59.1133434 88.74,57.1 C86.8333238,55.0866566 85.88,52.3066844 85.88,48.76 L85.88,25.84 L81.68,25.84 C81.146664,25.84 80.6933352,25.6666684 80.32,25.32 C79.9466648,24.9733316 79.76,24.4533368 79.76,23.76 L79.76,19.84 L86.36,18.72 L88.44,7.56 C88.573334,7.026664 88.8266648,6.6133348 89.2,6.32 C89.5733352,6.0266652 90.0533304,5.88 90.64,5.88 L95.76,5.88 L95.76,18.8 L124.68,18.8 L124.68,59.48 Z M141,23.48 C141.826671,22.6533292 142.699995,21.8866702 143.62,21.18 C144.540005,20.4733298 145.513328,19.8733358 146.54,19.38 C147.566672,18.8866642 148.666661,18.5000014 149.84,18.22 C151.013339,17.9399986 152.293326,17.8 153.68,17.8 C155.920011,17.8 157.906658,18.1799962 159.64,18.94 C161.373342,19.7000038 162.819994,20.7666598 163.98,22.14 C165.140006,23.5133402 166.019997,25.1533238 166.62,27.06 C167.220003,28.9666762 167.52,31.0666552 167.52,33.36 L167.52,59.48 L157.64,59.48 L157.64,33.36 C157.64,30.8533208 157.066672,28.9133402 155.92,27.54 C154.773328,26.1666598 153.026678,25.48 150.68,25.48 C148.973325,25.48 147.373341,25.8666628 145.88,26.64 C144.386659,27.4133372 142.97334,28.46666 141.64,29.8 L141.64,59.48 L131.76,59.48 L131.76,18.44 L137.8,18.44 C139.080006,18.44 139.919998,19.039994 140.32,20.24 L141,23.48 Z M188.88,37.96 C190.106673,37.96 191.173329,37.793335 192.08,37.46 C192.986671,37.126665 193.739997,36.6666696 194.34,36.08 C194.940003,35.4933304 195.393332,34.7866708 195.7,33.96 C196.006668,33.1333292 196.16,32.2266716 196.16,31.24 C196.16,29.2133232 195.553339,27.6066726 194.34,26.42 C193.126661,25.2333274 191.306679,24.64 188.88,24.64 C186.453321,24.64 184.633339,25.2333274 183.42,26.42 C182.206661,27.6066726 181.6,29.2133232 181.6,31.24 C181.6,32.2000048 181.753332,33.0933292 182.06,33.92 C182.366668,34.7466708 182.819997,35.459997 183.42,36.06 C184.020003,36.660003 184.779995,37.126665 185.7,37.46 C186.620005,37.793335 187.679994,37.96 188.88,37.96 Z M200.04,61.32 C200.04,60.519996 199.800002,59.8666692 199.32,59.36 C198.839998,58.8533308 198.186671,58.4600014 197.36,58.18 C196.533329,57.8999986 195.566672,57.693334 194.46,57.56 C193.353328,57.426666 192.180006,57.326667 190.94,57.26 C189.699994,57.193333 188.420007,57.1333336 187.1,57.08 C185.779993,57.0266664 184.49334,56.9200008 183.24,56.76 C182.146661,57.3733364 181.260003,58.0933292 180.58,58.92 C179.899997,59.7466708 179.56,60.7066612 179.56,61.8 C179.56,62.5200036 179.739998,63.1933302 180.1,63.82 C180.460002,64.4466698 181.033329,64.9866644 181.82,65.44 C182.606671,65.8933356 183.62666,66.2466654 184.88,66.5 C186.13334,66.7533346 187.666658,66.88 189.48,66.88 C191.320009,66.88 192.90666,66.7400014 194.24,66.46 C195.57334,66.1799986 196.673329,65.7933358 197.54,65.3 C198.406671,64.8066642 199.039998,64.2200034 199.44,63.54 C199.840002,62.8599966 200.04,62.120004 200.04,61.32 Z M209.88,19.84 L209.88,23.52 C209.88,24.6933392 209.17334,25.413332 207.76,25.68 L204.08,26.36 C204.640003,27.7733404 204.92,29.3199916 204.92,31 C204.92,33.0266768 204.513337,34.8599918 203.7,36.5 C202.886663,38.1400082 201.760007,39.5333276 200.32,40.68 C198.879993,41.8266724 197.18001,42.7133302 195.22,43.34 C193.25999,43.9666698 191.146678,44.28 188.88,44.28 C188.079996,44.28 187.30667,44.2400004 186.56,44.16 C185.81333,44.0799996 185.080004,43.973334 184.36,43.84 C183.079994,44.6133372 182.44,45.4799952 182.44,46.44 C182.44,47.2666708 182.819996,47.8733314 183.58,48.26 C184.340004,48.6466686 185.34666,48.9199992 186.6,49.08 C187.85334,49.2400008 189.279992,49.3399998 190.88,49.38 C192.480008,49.4200002 194.119992,49.506666 195.8,49.64 C197.480008,49.773334 199.119992,50.006665 200.72,50.34 C202.320008,50.673335 203.74666,51.1999964 205,51.92 C206.25334,52.6400036 207.259996,53.6199938 208.02,54.86 C208.780004,56.1000062 209.16,57.6933236 209.16,59.64 C209.16,61.4533424 208.713338,63.2133248 207.82,64.92 C206.926662,66.6266752 205.633342,68.14666 203.94,69.48 C202.246658,70.81334 200.166679,71.8866626 197.7,72.7 C195.233321,73.5133374 192.426682,73.92 189.28,73.92 C186.186651,73.92 183.493345,73.620003 181.2,73.02 C178.906655,72.419997 177.000008,71.620005 175.48,70.62 C173.959992,69.619995 172.82667,68.4666732 172.08,67.16 C171.33333,65.8533268 170.96,64.4933404 170.96,63.08 C170.96,61.1599904 171.539994,59.5533398 172.7,58.26 C173.860006,56.9666602 175.453323,55.9333372 177.48,55.16 C176.386661,54.5999972 175.520003,53.853338 174.88,52.92 C174.239997,51.986662 173.92,50.7600076 173.92,49.24 C173.92,48.6266636 174.033332,47.9933366 174.26,47.34 C174.486668,46.6866634 174.819998,46.0400032 175.26,45.4 C175.700002,44.7599968 176.25333,44.1533362 176.92,43.58 C177.58667,43.0066638 178.373329,42.4933356 179.28,42.04 C177.19999,40.9199944 175.566673,39.426676 174.38,37.56 C173.193327,35.693324 172.6,33.5066792 172.6,31 C172.6,28.9733232 173.006663,27.1400082 173.82,25.5 C174.633337,23.8599918 175.766659,22.4600058 177.22,21.3 C178.673341,20.1399942 180.393323,19.2533364 182.38,18.64 C184.366677,18.0266636 186.533322,17.72 188.88,17.72 C190.640009,17.72 192.293326,17.8999982 193.84,18.26 C195.386674,18.6200018 196.799994,19.1466632 198.08,19.84 L209.88,19.84 Z" id="Ratingify" fill="#868EA8"></path>
            </g>
        </g>
    </g>
</svg>